<svg xmlns="http://www.w3.org/2000/svg" width="289.911" height="41.351" viewBox="0 0 289.911 41.351">
  <g id="Group_13" data-name="Group 13" transform="translate(-386.222 -503.742)">
    <g id="Group_11" data-name="Group 11" transform="translate(386.222 520.887)">
      <path id="Path_42" data-name="Path 42" d="M398.224,556.636a12.254,12.254,0,0,1-4.688-.9,11.461,11.461,0,0,1-3.807-2.51,12.1,12.1,0,0,1-3.508-8.628v-.067a12.15,12.15,0,0,1,3.491-8.595,11.7,11.7,0,0,1,3.873-2.576,12.688,12.688,0,0,1,4.905-.931,14.075,14.075,0,0,1,3.258.349,11.176,11.176,0,0,1,2.677,1,10.69,10.69,0,0,1,2.194,1.546,12.786,12.786,0,0,1,1.746,1.962l-4.854,3.757a8.415,8.415,0,0,0-2.195-1.995,5.446,5.446,0,0,0-2.893-.732,5.17,5.17,0,0,0-2.245.482,5.377,5.377,0,0,0-1.745,1.313,6.132,6.132,0,0,0-1.147,1.962,6.877,6.877,0,0,0-.415,2.394v.066a7.109,7.109,0,0,0,.415,2.444,6.081,6.081,0,0,0,1.147,1.979,5.35,5.35,0,0,0,1.745,1.313,5.161,5.161,0,0,0,2.245.482,6.358,6.358,0,0,0,1.645-.2,5.007,5.007,0,0,0,1.364-.581,7.369,7.369,0,0,0,1.163-.9,13.285,13.285,0,0,0,1.081-1.147l4.855,3.458a17.4,17.4,0,0,1-1.812,2.095,10.414,10.414,0,0,1-2.229,1.662,11.593,11.593,0,0,1-2.792,1.1A13.929,13.929,0,0,1,398.224,556.636Z" transform="translate(-386.222 -532.43)" fill="#fff"/>
      <path id="Path_43" data-name="Path 43" d="M444.9,556.636a12.935,12.935,0,0,1-4.987-.948,12.269,12.269,0,0,1-3.957-2.577,11.9,11.9,0,0,1-2.61-3.824,11.7,11.7,0,0,1-.947-4.688v-.067a11.861,11.861,0,0,1,3.591-8.561,12.529,12.529,0,0,1,3.99-2.593,13.6,13.6,0,0,1,9.975,0,12.3,12.3,0,0,1,3.956,2.577,11.9,11.9,0,0,1,2.61,3.824,11.689,11.689,0,0,1,.948,4.688v.066a11.863,11.863,0,0,1-3.591,8.562,12.534,12.534,0,0,1-3.989,2.594A12.939,12.939,0,0,1,444.9,556.636Zm.05-5.819a5.833,5.833,0,0,0,2.434-.5,5.6,5.6,0,0,0,1.867-1.347,6.243,6.243,0,0,0,1.2-1.978,6.643,6.643,0,0,0,.433-2.394v-.067a6.65,6.65,0,0,0-.433-2.394,6.179,6.179,0,0,0-1.234-1.995,6.08,6.08,0,0,0-1.9-1.38,6.058,6.058,0,0,0-4.851-.017,5.8,5.8,0,0,0-3.067,3.325,6.851,6.851,0,0,0-.417,2.394v.066a6.646,6.646,0,0,0,.433,2.394,6.29,6.29,0,0,0,1.217,1.995,5.862,5.862,0,0,0,1.883,1.38A5.661,5.661,0,0,0,444.948,550.817Z" transform="translate(-404.801 -532.43)" fill="#fff"/>
      <path id="Path_44" data-name="Path 44" d="M485.527,533.209h6.03l9.6,12.3v-12.3H507.5v23.274H501.84l-9.963-12.767v12.767h-6.35Z" transform="translate(-426.178 -532.743)" fill="#fff"/>
      <path id="Path_45" data-name="Path 45" d="M539.573,538.862h-6.982v-5.653h20.414v5.653h-6.982v17.622h-6.45Z" transform="translate(-445.114 -532.743)" fill="#fff"/>
      <path id="Path_46" data-name="Path 46" d="M577.043,533.209h11a13.631,13.631,0,0,1,4.555.665,7.794,7.794,0,0,1,3.026,1.862,7.191,7.191,0,0,1,2.062,5.419v.066a7.316,7.316,0,0,1-1.3,4.455,8.2,8.2,0,0,1-3.491,2.693l5.552,8.112h-7.447l-4.688-7.049h-2.826v7.049h-6.45Zm10.706,11.172a3.9,3.9,0,0,0,2.56-.748,2.484,2.484,0,0,0,.9-2.012v-.066a2.4,2.4,0,0,0-.931-2.078,4.259,4.259,0,0,0-2.56-.681h-4.222v5.586Z" transform="translate(-463 -532.743)" fill="#fff"/>
      <path id="Path_47" data-name="Path 47" d="M629.4,532.931h6.218l9.908,23.44h-6.916l-1.7-4.156h-8.977l-1.663,4.156h-6.782Zm5.652,14.3-2.593-6.617-2.627,6.617Z" transform="translate(-480.079 -532.632)" fill="#fff"/>
      <path id="Path_48" data-name="Path 48" d="M683.063,556.636a12.256,12.256,0,0,1-4.688-.9,11.46,11.46,0,0,1-3.807-2.51,12.1,12.1,0,0,1-3.508-8.628v-.067a12.15,12.15,0,0,1,3.492-8.595,11.69,11.69,0,0,1,3.873-2.576,12.683,12.683,0,0,1,4.9-.931,14.075,14.075,0,0,1,3.258.349,11.176,11.176,0,0,1,2.677,1,10.69,10.69,0,0,1,2.194,1.546,12.788,12.788,0,0,1,1.746,1.962l-4.854,3.757a8.415,8.415,0,0,0-2.195-1.995,5.446,5.446,0,0,0-2.893-.732,5.17,5.17,0,0,0-2.245.482,5.376,5.376,0,0,0-1.745,1.313,6.133,6.133,0,0,0-1.147,1.962,6.877,6.877,0,0,0-.415,2.394v.066a7.109,7.109,0,0,0,.415,2.444,6.082,6.082,0,0,0,1.147,1.979,5.35,5.35,0,0,0,1.745,1.313,5.161,5.161,0,0,0,2.245.482,6.358,6.358,0,0,0,1.645-.2,5.006,5.006,0,0,0,1.364-.581,7.366,7.366,0,0,0,1.163-.9,13.276,13.276,0,0,0,1.081-1.147l4.855,3.458a17.4,17.4,0,0,1-1.812,2.095,10.413,10.413,0,0,1-2.229,1.662,11.591,11.591,0,0,1-2.792,1.1A13.929,13.929,0,0,1,683.063,556.636Z" transform="translate(-500.828 -532.43)" fill="#fff"/>
      <path id="Path_49" data-name="Path 49" d="M723.384,538.862H716.4v-5.653h20.414v5.653h-6.982v17.622h-6.45Z" transform="translate(-519.072 -532.743)" fill="#fff"/>
      <path id="Path_50" data-name="Path 50" d="M761.074,533.209h6.483v23.274h-6.483Z" transform="translate(-537.046 -532.743)" fill="#fff"/>
      <path id="Path_51" data-name="Path 51" d="M784.607,533.209h6.03l9.6,12.3v-12.3h6.349v23.274H800.92l-9.963-12.767v12.767h-6.35Z" transform="translate(-546.514 -532.743)" fill="#fff"/>
      <path id="Path_52" data-name="Path 52" d="M845.173,556.636a14.04,14.04,0,0,1-5.038-.882,12.005,12.005,0,0,1-4.005-2.477,11.437,11.437,0,0,1-2.661-3.807,12.06,12.06,0,0,1-.964-4.871v-.067a12.038,12.038,0,0,1,3.54-8.595,11.8,11.8,0,0,1,3.961-2.576,13.236,13.236,0,0,1,5-.931,14.331,14.331,0,0,1,5.336.9,14.6,14.6,0,0,1,4.106,2.493l-3.79,4.555a10.464,10.464,0,0,0-2.578-1.629,7.658,7.658,0,0,0-3.042-.565,5.519,5.519,0,0,0-2.343.5,5.875,5.875,0,0,0-1.88,1.363,6.552,6.552,0,0,0-1.263,2.028,6.646,6.646,0,0,0-.466,2.493v.067a7.048,7.048,0,0,0,.468,2.593,5.828,5.828,0,0,0,1.317,2.044,6.174,6.174,0,0,0,2,1.33,6.536,6.536,0,0,0,2.552.482,6.679,6.679,0,0,0,3.736-.964v-2.826h-4.589v-4.721h10.706v10.473a16.944,16.944,0,0,1-4.389,2.56A15.04,15.04,0,0,1,845.173,556.636Z" transform="translate(-565.786 -532.43)" fill="#fff"/>
    </g>
    <g id="Group_12" data-name="Group 12" transform="translate(386.918 503.742)">
      <path id="Path_53" data-name="Path 53" d="M392.84,515.832a9.028,9.028,0,0,1-2.968-.485,7.175,7.175,0,0,1-2.485-1.455l1.8-2.149a5.92,5.92,0,0,0,3.772,1.4,1.924,1.924,0,0,0,.989-.207.653.653,0,0,0,.341-.589v-.034a.635.635,0,0,0-.083-.323.859.859,0,0,0-.308-.274,3.22,3.22,0,0,0-.6-.257q-.375-.124-.972-.257-.931-.216-1.729-.473a5.316,5.316,0,0,1-1.388-.664,2.835,2.835,0,0,1-1.271-2.514v-.033a3.583,3.583,0,0,1,.308-1.494,3.317,3.317,0,0,1,.9-1.179,4.216,4.216,0,0,1,1.421-.771,6,6,0,0,1,1.878-.274,8.37,8.37,0,0,1,2.668.393,6.74,6.74,0,0,1,2.119,1.162l-1.612,2.284a6.535,6.535,0,0,0-1.637-.856,4.949,4.949,0,0,0-1.621-.29,1.459,1.459,0,0,0-.873.215.643.643,0,0,0-.29.531v.034a.655.655,0,0,0,.091.348.819.819,0,0,0,.316.274,3.485,3.485,0,0,0,.614.249q.392.125.99.257a14.133,14.133,0,0,1,1.8.506,5.391,5.391,0,0,1,1.372.705,2.831,2.831,0,0,1,.865,1,3.072,3.072,0,0,1,.3,1.4v.034a3.589,3.589,0,0,1-.34,1.593,3.414,3.414,0,0,1-.956,1.186,4.338,4.338,0,0,1-1.48.746A6.747,6.747,0,0,1,392.84,515.832Z" transform="translate(-387.387 -503.764)" fill="#fff"/>
      <path id="Path_54" data-name="Path 54" d="M417.027,515.843a6.466,6.466,0,0,1-2.493-.473,6.141,6.141,0,0,1-1.979-1.288,5.96,5.96,0,0,1-1.3-1.911,5.853,5.853,0,0,1-.474-2.343v-.033a5.928,5.928,0,0,1,1.8-4.28,6.276,6.276,0,0,1,1.994-1.3,6.8,6.8,0,0,1,4.987,0,6.147,6.147,0,0,1,1.978,1.288,5.941,5.941,0,0,1,1.3,1.912,5.85,5.85,0,0,1,.474,2.343v.034a5.934,5.934,0,0,1-1.795,4.28,6.269,6.269,0,0,1-1.995,1.3A6.474,6.474,0,0,1,417.027,515.843Zm.025-2.909a2.918,2.918,0,0,0,1.217-.249,2.8,2.8,0,0,0,.934-.673,3.152,3.152,0,0,0,.6-.989,3.324,3.324,0,0,0,.217-1.2v-.033a3.325,3.325,0,0,0-.217-1.2,3.1,3.1,0,0,0-.617-1,3.059,3.059,0,0,0-.95-.69,3.027,3.027,0,0,0-2.425-.008,2.9,2.9,0,0,0-1.534,1.663,3.423,3.423,0,0,0-.208,1.2v.034a3.322,3.322,0,0,0,.216,1.2,3.169,3.169,0,0,0,.609,1,2.936,2.936,0,0,0,.941.69A2.838,2.838,0,0,0,417.052,512.934Z" transform="translate(-396.798 -503.742)" fill="#fff"/>
      <path id="Path_55" data-name="Path 55" d="M444.141,515.982a7.434,7.434,0,0,1-2.245-.316,4.157,4.157,0,0,1-2.767-2.634,6.793,6.793,0,0,1-.374-2.368v-6.533h3.291V510.6a2.631,2.631,0,0,0,.577,1.871,2.042,2.042,0,0,0,1.552.606,2.08,2.08,0,0,0,1.549-.581,2.48,2.48,0,0,0,.577-1.811v-6.55h3.292v6.449a6.832,6.832,0,0,1-.391,2.435,4.216,4.216,0,0,1-2.81,2.651A7.5,7.5,0,0,1,444.141,515.982Z" transform="translate(-408.055 -503.899)" fill="#fff"/>
      <path id="Path_56" data-name="Path 56" d="M466.943,506.957h-3.491v-2.826h10.206v2.826h-3.491v8.809h-3.224Z" transform="translate(-417.992 -503.899)" fill="#fff"/>
      <path id="Path_57" data-name="Path 57" d="M487.344,504.131h3.224v4.355h4.139v-4.355h3.224v11.636h-3.224v-4.421h-4.139v4.421h-3.224Z" transform="translate(-427.605 -503.899)" fill="#fff"/>
      <path id="Path_58" data-name="Path 58" d="M512.958,504.131H522.3v2.743h-6.167v1.762h5.586v2.543h-5.586v1.845h6.25v2.743h-9.424Z" transform="translate(-437.911 -503.899)" fill="#fff"/>
      <path id="Path_59" data-name="Path 59" d="M535.958,504.131h5.5a6.83,6.83,0,0,1,2.277.332,3.917,3.917,0,0,1,1.513.931,3.6,3.6,0,0,1,1.03,2.709v.033a3.666,3.666,0,0,1-.647,2.227,4.1,4.1,0,0,1-1.745,1.347l2.775,4.056h-3.723l-2.344-3.524h-1.412v3.524h-3.225Zm5.351,5.585a1.948,1.948,0,0,0,1.281-.374,1.239,1.239,0,0,0,.448-1.005V508.3a1.2,1.2,0,0,0-.466-1.039,2.126,2.126,0,0,0-1.28-.341h-2.11v2.792Z" transform="translate(-447.165 -503.899)" fill="#fff"/>
      <path id="Path_60" data-name="Path 60" d="M560.4,504.131h3.015l4.8,6.15v-6.15h3.175v11.636h-2.832l-4.981-6.383v6.383H560.4Z" transform="translate(-457.001 -503.899)" fill="#fff"/>
      <path id="Path_61" data-name="Path 61" d="M597.282,504.131h3.607l2.643,7.364,2.642-7.364h3.542l-4.721,11.719H602Z" transform="translate(-471.839 -503.899)" fill="#fff"/>
      <path id="Path_62" data-name="Path 62" d="M624.428,504.131h9.341v2.743H627.6v1.762h5.586v2.543H627.6v1.845h6.25v2.743h-9.424Z" transform="translate(-482.762 -503.899)" fill="#fff"/>
      <path id="Path_63" data-name="Path 63" d="M653.092,515.843a7.013,7.013,0,0,1-2.518-.44,6.017,6.017,0,0,1-2-1.238,5.716,5.716,0,0,1-1.329-1.9,6.019,6.019,0,0,1-.483-2.434v-.033a6.017,6.017,0,0,1,1.771-4.3,5.9,5.9,0,0,1,1.979-1.288,6.621,6.621,0,0,1,2.5-.466,7.166,7.166,0,0,1,2.668.449,7.318,7.318,0,0,1,2.052,1.247l-1.894,2.277a5.239,5.239,0,0,0-1.289-.815,3.817,3.817,0,0,0-1.521-.283,2.757,2.757,0,0,0-1.172.25,2.934,2.934,0,0,0-.938.681,3.267,3.267,0,0,0-.632,1.014,3.329,3.329,0,0,0-.232,1.247v.033a3.544,3.544,0,0,0,.233,1.3,2.924,2.924,0,0,0,.659,1.022,3.086,3.086,0,0,0,1,.665,3.27,3.27,0,0,0,1.276.241,3.338,3.338,0,0,0,1.868-.482v-1.413h-2.294v-2.36h5.352v5.235a8.477,8.477,0,0,1-2.195,1.28A7.507,7.507,0,0,1,653.092,515.843Z" transform="translate(-491.747 -503.742)" fill="#fff"/>
      <path id="Path_64" data-name="Path 64" d="M676.66,503.992h3.108l4.954,11.719h-3.457l-.848-2.077h-4.488l-.831,2.077h-3.391Zm2.826,7.147-1.3-3.307-1.313,3.307Z" transform="translate(-501.784 -503.843)" fill="#fff"/>
      <path id="Path_65" data-name="Path 65" d="M703.8,515.832a9.031,9.031,0,0,1-2.968-.485,7.186,7.186,0,0,1-2.485-1.455l1.8-2.149a5.919,5.919,0,0,0,3.772,1.4,1.924,1.924,0,0,0,.989-.207.653.653,0,0,0,.341-.589v-.034a.635.635,0,0,0-.083-.323.859.859,0,0,0-.308-.274,3.211,3.211,0,0,0-.6-.257q-.374-.124-.972-.257-.931-.216-1.729-.473a5.317,5.317,0,0,1-1.388-.664,2.832,2.832,0,0,1-1.271-2.514v-.033a3.583,3.583,0,0,1,.307-1.494,3.319,3.319,0,0,1,.9-1.179,4.216,4.216,0,0,1,1.421-.771,5.992,5.992,0,0,1,1.878-.274,8.373,8.373,0,0,1,2.669.393,6.74,6.74,0,0,1,2.119,1.162l-1.612,2.284a6.535,6.535,0,0,0-1.637-.856,4.95,4.95,0,0,0-1.621-.29,1.458,1.458,0,0,0-.872.215.643.643,0,0,0-.29.531v.034a.66.66,0,0,0,.091.348.828.828,0,0,0,.316.274,3.514,3.514,0,0,0,.615.249q.392.125.99.257a14.133,14.133,0,0,1,1.8.506,5.411,5.411,0,0,1,1.372.705,2.822,2.822,0,0,1,.864,1,3.064,3.064,0,0,1,.3,1.4v.034a3.6,3.6,0,0,1-.34,1.593,3.422,3.422,0,0,1-.956,1.186,4.339,4.339,0,0,1-1.48.746A6.75,6.75,0,0,1,703.8,515.832Z" transform="translate(-512.504 -503.764)" fill="#fff"/>
      <path id="Path_66" data-name="Path 66" d="M733,504.131h3.607l2.643,7.364,2.642-7.364h3.542l-4.721,11.719h-2.991Z" transform="translate(-526.447 -503.899)" fill="#fff"/>
      <path id="Path_67" data-name="Path 67" d="M763.544,503.992h3.108l4.954,11.719h-3.457l-.848-2.077h-4.488l-.831,2.077H758.59Zm2.826,7.147-1.3-3.307-1.313,3.307Z" transform="translate(-536.742 -503.843)" fill="#fff"/>
      <path id="Path_68" data-name="Path 68" d="M786.709,504.131h3.225v8.81h5.634v2.826h-8.859Z" transform="translate(-548.056 -503.899)" fill="#fff"/>
      <path id="Path_69" data-name="Path 69" d="M808.291,504.131h3.225v8.81h5.635v2.826h-8.859Z" transform="translate(-556.74 -503.899)" fill="#fff"/>
      <path id="Path_70" data-name="Path 70" d="M829.873,504.131h9.341v2.743h-6.167v1.762h5.586v2.543h-5.586v1.845h6.25v2.743h-9.424Z" transform="translate(-565.423 -503.899)" fill="#fff"/>
      <path id="Path_71" data-name="Path 71" d="M855.514,511.411l-4.422-7.28h3.674l2.392,4.239,2.411-4.239h3.606l-4.421,7.231v4.4h-3.241Z" transform="translate(-573.961 -503.899)" fill="#fff"/>
    </g>
  </g>
</svg>
